<svg xmlns="http://www.w3.org/2000/svg" version="1.1" xmlns:xlink="http://www.w3.org/1999/xlink" xmlns:svgjs="http://svgjs.dev/svgjs" width="600" height="1000" preserveAspectRatio="none" viewBox="0 0 600 1000"><g mask="url(&quot;#SvgjsMask1022&quot;)" fill="none"><rect width="600" height="1000" x="0" y="0" fill="rgba(236, 164, 0, 1)"></rect><path d="M118.12 76.41L183.08 113.91L183.08 188.91L118.12 226.41L53.17 188.91L53.17 113.91zM118.12 751.41L183.08 788.91L183.08 863.91L118.12 901.41L53.17 863.91L53.17 788.91zM53.17 863.91L118.12 901.41L118.12 976.41L53.17 1013.91L-11.78 976.41L-11.78 901.41zM248.03 76.41L312.99 113.91L312.99 188.91L248.03 226.41L183.08 188.91L183.08 113.91zM183.08 413.91L248.03 451.41L248.03 526.41L183.08 563.91L118.12 526.41L118.12 451.41zM377.94 76.41L442.89 113.91L442.89 188.91L377.94 226.41L312.99 188.91L312.99 113.91zM442.89 -36.09L507.85 1.41L507.85 76.41L442.89 113.91L377.94 76.41L377.94 1.41zM442.89 188.91L507.85 226.41L507.85 301.41L442.89 338.91L377.94 301.41L377.94 226.41zM507.85 301.41L572.8 338.91L572.8 413.91L507.85 451.41L442.89 413.91L442.89 338.91zM572.8 -36.09L637.75 1.41L637.75 76.41L572.8 113.91L507.85 76.41L507.85 1.41zM637.75 751.41L702.71 788.91L702.71 863.91L637.75 901.41L572.8 863.91L572.8 788.91zM637.75 976.41L702.71 1013.91L702.71 1088.91L637.75 1126.41L572.8 1088.91L572.8 1013.91z" stroke="rgba(0, 105, 146, 1)" stroke-width="2"></path><path d="M110.62 76.41 a7.5 7.5 0 1 0 15 0 a7.5 7.5 0 1 0 -15 0zM175.58 113.91 a7.5 7.5 0 1 0 15 0 a7.5 7.5 0 1 0 -15 0zM175.58 188.91 a7.5 7.5 0 1 0 15 0 a7.5 7.5 0 1 0 -15 0zM110.62 226.41 a7.5 7.5 0 1 0 15 0 a7.5 7.5 0 1 0 -15 0zM45.67 188.91 a7.5 7.5 0 1 0 15 0 a7.5 7.5 0 1 0 -15 0zM45.67 113.91 a7.5 7.5 0 1 0 15 0 a7.5 7.5 0 1 0 -15 0zM110.62 751.41 a7.5 7.5 0 1 0 15 0 a7.5 7.5 0 1 0 -15 0zM175.58 788.91 a7.5 7.5 0 1 0 15 0 a7.5 7.5 0 1 0 -15 0zM175.58 863.91 a7.5 7.5 0 1 0 15 0 a7.5 7.5 0 1 0 -15 0zM110.62 901.41 a7.5 7.5 0 1 0 15 0 a7.5 7.5 0 1 0 -15 0zM45.67 863.91 a7.5 7.5 0 1 0 15 0 a7.5 7.5 0 1 0 -15 0zM45.67 788.91 a7.5 7.5 0 1 0 15 0 a7.5 7.5 0 1 0 -15 0zM110.62 976.41 a7.5 7.5 0 1 0 15 0 a7.5 7.5 0 1 0 -15 0zM45.67 1013.91 a7.5 7.5 0 1 0 15 0 a7.5 7.5 0 1 0 -15 0zM-19.28 976.41 a7.5 7.5 0 1 0 15 0 a7.5 7.5 0 1 0 -15 0zM-19.28 901.41 a7.5 7.5 0 1 0 15 0 a7.5 7.5 0 1 0 -15 0zM240.53 76.41 a7.5 7.5 0 1 0 15 0 a7.5 7.5 0 1 0 -15 0zM305.49 113.91 a7.5 7.5 0 1 0 15 0 a7.5 7.5 0 1 0 -15 0zM305.49 188.91 a7.5 7.5 0 1 0 15 0 a7.5 7.5 0 1 0 -15 0zM240.53 226.41 a7.5 7.5 0 1 0 15 0 a7.5 7.5 0 1 0 -15 0zM175.58 413.91 a7.5 7.5 0 1 0 15 0 a7.5 7.5 0 1 0 -15 0zM240.53 451.41 a7.5 7.5 0 1 0 15 0 a7.5 7.5 0 1 0 -15 0zM240.53 526.41 a7.5 7.5 0 1 0 15 0 a7.5 7.5 0 1 0 -15 0zM175.58 563.91 a7.5 7.5 0 1 0 15 0 a7.5 7.5 0 1 0 -15 0zM110.62 526.41 a7.5 7.5 0 1 0 15 0 a7.5 7.5 0 1 0 -15 0zM110.62 451.41 a7.5 7.5 0 1 0 15 0 a7.5 7.5 0 1 0 -15 0zM370.44 76.41 a7.5 7.5 0 1 0 15 0 a7.5 7.5 0 1 0 -15 0zM435.39 113.91 a7.5 7.5 0 1 0 15 0 a7.5 7.5 0 1 0 -15 0zM435.39 188.91 a7.5 7.5 0 1 0 15 0 a7.5 7.5 0 1 0 -15 0zM370.44 226.41 a7.5 7.5 0 1 0 15 0 a7.5 7.5 0 1 0 -15 0zM435.39 -36.09 a7.5 7.5 0 1 0 15 0 a7.5 7.5 0 1 0 -15 0zM500.35 1.41 a7.5 7.5 0 1 0 15 0 a7.5 7.5 0 1 0 -15 0zM500.35 76.41 a7.5 7.5 0 1 0 15 0 a7.5 7.5 0 1 0 -15 0zM370.44 1.41 a7.5 7.5 0 1 0 15 0 a7.5 7.5 0 1 0 -15 0zM500.35 226.41 a7.5 7.5 0 1 0 15 0 a7.5 7.5 0 1 0 -15 0zM500.35 301.41 a7.5 7.5 0 1 0 15 0 a7.5 7.5 0 1 0 -15 0zM435.39 338.91 a7.5 7.5 0 1 0 15 0 a7.5 7.5 0 1 0 -15 0zM370.44 301.41 a7.5 7.5 0 1 0 15 0 a7.5 7.5 0 1 0 -15 0zM565.3 338.91 a7.5 7.5 0 1 0 15 0 a7.5 7.5 0 1 0 -15 0zM565.3 413.91 a7.5 7.5 0 1 0 15 0 a7.5 7.5 0 1 0 -15 0zM500.35 451.41 a7.5 7.5 0 1 0 15 0 a7.5 7.5 0 1 0 -15 0zM435.39 413.91 a7.5 7.5 0 1 0 15 0 a7.5 7.5 0 1 0 -15 0zM565.3 -36.09 a7.5 7.5 0 1 0 15 0 a7.5 7.5 0 1 0 -15 0zM630.25 1.41 a7.5 7.5 0 1 0 15 0 a7.5 7.5 0 1 0 -15 0zM630.25 76.41 a7.5 7.5 0 1 0 15 0 a7.5 7.5 0 1 0 -15 0zM565.3 113.91 a7.5 7.5 0 1 0 15 0 a7.5 7.5 0 1 0 -15 0zM630.25 751.41 a7.5 7.5 0 1 0 15 0 a7.5 7.5 0 1 0 -15 0zM695.21 788.91 a7.5 7.5 0 1 0 15 0 a7.5 7.5 0 1 0 -15 0zM695.21 863.91 a7.5 7.5 0 1 0 15 0 a7.5 7.5 0 1 0 -15 0zM630.25 901.41 a7.5 7.5 0 1 0 15 0 a7.5 7.5 0 1 0 -15 0zM565.3 863.91 a7.5 7.5 0 1 0 15 0 a7.5 7.5 0 1 0 -15 0zM565.3 788.91 a7.5 7.5 0 1 0 15 0 a7.5 7.5 0 1 0 -15 0zM630.25 976.41 a7.5 7.5 0 1 0 15 0 a7.5 7.5 0 1 0 -15 0zM695.21 1013.91 a7.5 7.5 0 1 0 15 0 a7.5 7.5 0 1 0 -15 0zM695.21 1088.91 a7.5 7.5 0 1 0 15 0 a7.5 7.5 0 1 0 -15 0zM630.25 1126.41 a7.5 7.5 0 1 0 15 0 a7.5 7.5 0 1 0 -15 0zM565.3 1088.91 a7.5 7.5 0 1 0 15 0 a7.5 7.5 0 1 0 -15 0zM565.3 1013.91 a7.5 7.5 0 1 0 15 0 a7.5 7.5 0 1 0 -15 0z" fill="rgba(0, 105, 146, 1)"></path><path d="M28.67 -16.76L71.97 8.24L71.97 58.24L28.67 83.24L-14.63 58.24L-14.63 8.24zM71.97 208.24L115.28 233.24L115.28 283.24L71.97 308.24L28.67 283.24L28.67 233.24zM71.97 508.24L115.28 533.24L115.28 583.24L71.97 608.24L28.67 583.24L28.67 533.24zM71.97 658.24L115.28 683.24L115.28 733.24L71.97 758.24L28.67 733.24L28.67 683.24zM28.67 733.24L71.97 758.24L71.97 808.24L28.67 833.24L-14.63 808.24L-14.63 758.24zM115.28 -16.76L158.58 8.24L158.58 58.24L115.28 83.24L71.97 58.24L71.97 8.24zM158.58 58.24L201.88 83.24L201.88 133.24L158.58 158.24L115.28 133.24L115.28 83.24zM158.58 208.24L201.88 233.24L201.88 283.24L158.58 308.24L115.28 283.24L115.28 233.24zM115.28 283.24L158.58 308.24L158.58 358.24L115.28 383.24L71.97 358.24L71.97 308.24zM158.58 508.24L201.88 533.24L201.88 583.24L158.58 608.24L115.28 583.24L115.28 533.24zM115.28 733.24L158.58 758.24L158.58 808.24L115.28 833.24L71.97 808.24L71.97 758.24zM115.28 883.24L158.58 908.24L158.58 958.24L115.28 983.24L71.97 958.24L71.97 908.24zM245.18 58.24L288.49 83.24L288.49 133.24L245.18 158.24L201.88 133.24L201.88 83.24zM201.88 283.24L245.18 308.24L245.18 358.24L201.88 383.24L158.58 358.24L158.58 308.24zM245.18 508.24L288.49 533.24L288.49 583.24L245.18 608.24L201.88 583.24L201.88 533.24zM245.18 808.24L288.49 833.24L288.49 883.24L245.18 908.24L201.88 883.24L201.88 833.24zM288.49 -16.76L331.79 8.24L331.79 58.24L288.49 83.24L245.18 58.24L245.18 8.24zM331.79 58.24L375.09 83.24L375.09 133.24L331.79 158.24L288.49 133.24L288.49 83.24zM288.49 133.24L331.79 158.24L331.79 208.24L288.49 233.24L245.18 208.24L245.18 158.24zM331.79 208.24L375.09 233.24L375.09 283.24L331.79 308.24L288.49 283.24L288.49 233.24zM288.49 433.24L331.79 458.24L331.79 508.24L288.49 533.24L245.18 508.24L245.18 458.24zM331.79 508.24L375.09 533.24L375.09 583.24L331.79 608.24L288.49 583.24L288.49 533.24zM331.79 658.24L375.09 683.24L375.09 733.24L331.79 758.24L288.49 733.24L288.49 683.24zM331.79 808.24L375.09 833.24L375.09 883.24L331.79 908.24L288.49 883.24L288.49 833.24zM288.49 883.24L331.79 908.24L331.79 958.24L288.49 983.24L245.18 958.24L245.18 908.24zM375.09 133.24L418.39 158.24L418.39 208.24L375.09 233.24L331.79 208.24L331.79 158.24zM375.09 433.24L418.39 458.24L418.39 508.24L375.09 533.24L331.79 508.24L331.79 458.24zM418.39 508.24L461.7 533.24L461.7 583.24L418.39 608.24L375.09 583.24L375.09 533.24zM461.7 -16.76L505 8.24L505 58.24L461.7 83.24L418.39 58.24L418.39 8.24zM505 58.24L548.3 83.24L548.3 133.24L505 158.24L461.7 133.24L461.7 83.24zM461.7 133.24L505 158.24L505 208.24L461.7 233.24L418.39 208.24L418.39 158.24zM461.7 433.24L505 458.24L505 508.24L461.7 533.24L418.39 508.24L418.39 458.24zM505 658.24L548.3 683.24L548.3 733.24L505 758.24L461.7 733.24L461.7 683.24zM461.7 733.24L505 758.24L505 808.24L461.7 833.24L418.39 808.24L418.39 758.24zM548.3 -16.76L591.6 8.24L591.6 58.24L548.3 83.24L505 58.24L505 8.24zM591.6 58.24L634.9 83.24L634.9 133.24L591.6 158.24L548.3 133.24L548.3 83.24zM548.3 733.24L591.6 758.24L591.6 808.24L548.3 833.24L505 808.24L505 758.24zM591.6 808.24L634.9 833.24L634.9 883.24L591.6 908.24L548.3 883.24L548.3 833.24z" stroke="rgba(234, 248, 191, 1)" stroke-width="2"></path></g><defs><mask id="SvgjsMask1022"><rect width="600" height="1000" fill="#ffffff"></rect></mask></defs></svg>